<?xml version="1.0" encoding="UTF-8" standalone="no"?>
<!-- This is a Stata 17.0 generated SVG file (http://www.stata.com) -->

<svg version="1.1" width="1080px" height="785px" viewBox="0 0 3960 2880" xmlns="http://www.w3.org/2000/svg" xmlns:xlink="http://www.w3.org/1999/xlink">
	<desc>Stata Graph - Graph</desc>
	<rect x="0" y="0" width="3960" height="2880" style="fill:#000000;stroke:none"/>
	<rect x="0.00" y="0.00" width="3959.88" height="2880.00" style="fill:#FFFFFF;fill-opacity:0.00"/>
	<rect x="2.88" y="2.88" width="3954.12" height="2874.24" style="fill:none;stroke:#FFFFFF;stroke-opacity:0.00;stroke-width:5.76"/>
	<rect x="436.59" y="100.86" width="3422.43" height="2388.33" style="fill:#FFFFFF"/>
	<rect x="439.47" y="103.74" width="3416.67" height="2382.57" style="fill:none;stroke:#FFFFFF;stroke-width:5.76"/>
	<path d=" M499.95 2199.72 L719.61 1295.08 L939.39 1295.08 L1159.04 1068.86 L1378.82 842.76 L1598.48 616.54 L1818.26 390.44" stroke-linejoin="round" style="fill:none;stroke:#1A476F;stroke-width:8.64"/>
	<path d=" M499.95 2199.72 L719.61 2199.72 L939.39 2199.72 L1159.04 1295.08 L1378.82 1295.08 L1598.48 1068.86 L1818.26 1068.86" stroke-linejoin="round" style="fill:none;stroke:#90353B;stroke-width:8.64"/>
	<path d=" M499.95 2199.72 L719.61 2199.72 L939.39 2199.72 L1159.04 1973.63 L1378.82 1747.40 L1598.48 1521.18 L1818.26 1295.08" stroke-linejoin="round" style="fill:none;stroke:#55752F;stroke-width:8.64"/>
	<path d=" M499.95 2199.72 L719.61 2199.72 L939.39 2199.72 L1159.04 1973.63 L1378.82 1973.63 L1598.48 1747.40 L1818.26 1747.40" stroke-linejoin="round" style="fill:none;stroke:#E37E00;stroke-width:8.64"/>
	<path d=" M499.95 2425.95 L719.61 1521.18 L939.39 1521.18 L1159.04 616.54 L1378.82 616.54 L1598.48 390.44 L1818.26 390.44" stroke-linejoin="round" style="fill:none;stroke:#6E8E84;stroke-width:8.64"/>
	<path d=" M499.95 2199.72 L719.61 1295.08 L939.39 1295.08 L1159.04 1068.86 L1378.82 842.76 L1598.48 616.54 L1818.26 390.44" stroke-linejoin="round" style="fill:none;stroke:#C10534;stroke-width:8.64"/>
	<path d=" M499.95 2199.72 L719.61 2199.72 L939.39 2199.72 L1159.04 1973.63 L1378.82 1973.63 L1598.48 1747.40 L1818.26 1521.18" stroke-linejoin="round" style="fill:none;stroke:#938DD2;stroke-width:8.64"/>
	<path d=" M499.95 2199.72 L719.61 2199.72 L939.39 2199.72 L1159.04 2199.72 L1378.82 1973.63 L1598.48 1973.63 L1818.26 1747.40" stroke-linejoin="round" style="fill:none;stroke:#CAC27E;stroke-width:8.64"/>
	<path d=" M499.95 2199.72 L719.61 1295.08 L939.39 1295.08 L1159.04 1068.86 L1378.82 1068.86 L1598.48 842.76 L1818.26 842.76" stroke-linejoin="round" style="fill:none;stroke:#A0522D;stroke-width:8.64"/>
	<path d=" M499.95 2199.72 L719.61 2199.72 L939.39 1973.63 L1159.04 1068.86 L1378.82 842.76 L1598.48 616.54 L1818.26 390.44" stroke-linejoin="round" style="fill:none;stroke:#7B92A8;stroke-width:8.64"/>
	<path d=" M499.95 2199.72 L719.61 1973.63 L939.39 1973.63 L1159.04 1747.40 L1378.82 1521.18 L1598.48 1295.08 L1818.26 1295.08" stroke-linejoin="round" style="fill:none;stroke:#2D6D66;stroke-width:8.64"/>
	<path d=" M499.95 2199.72 L719.61 2199.72 L939.39 1973.63 L1159.04 1747.40 L1378.82 1521.18 L1598.48 1295.08 L1818.26 1295.08" stroke-linejoin="round" style="fill:none;stroke:#9C8847;stroke-width:8.64"/>
	<path d=" M499.95 2199.72 L719.61 2199.72 L939.39 1295.08 L1159.04 1068.86 L1378.82 842.76 L1598.48 616.54 L1818.26 390.44" stroke-linejoin="round" style="fill:none;stroke:#BFA19C;stroke-width:8.64"/>
	<path d=" M499.95 2199.72 L719.61 2199.72 L939.39 2199.72 L1159.04 1973.63 L1378.82 1973.63 L1598.48 1973.63 L1818.26 1973.63" stroke-linejoin="round" style="fill:none;stroke:#FFD200;stroke-width:8.64"/>
	<path d=" M499.95 2199.72 L719.61 2199.72 L939.39 2199.72 L1159.04 1973.63 L1378.82 1747.40 L1598.48 1521.18 L1818.26 1521.18" stroke-linejoin="round" style="fill:none;stroke:#D9E6EB;stroke-width:8.64"/>
	<path d=" M499.95 2199.72 L719.61 1295.08 L939.39 1295.08 L1159.04 1068.86 L1378.82 842.76 L1598.48 616.54 L1818.26 390.44" stroke-linejoin="round" style="fill:none;stroke:#1A476F;stroke-width:8.64"/>
	<path d=" M499.95 2199.72 L719.61 2199.72 L939.39 2199.72 L1159.04 1973.63 L1378.82 1747.40 L1598.48 1521.18 L1818.26 1521.18" stroke-linejoin="round" style="fill:none;stroke:#90353B;stroke-width:8.64"/>
	<path d=" M499.95 2199.72 L719.61 1973.63 L939.39 1973.63 L1159.04 1747.40 L1378.82 1521.18 L1598.48 1295.08 L1818.26 1068.86" stroke-linejoin="round" style="fill:none;stroke:#55752F;stroke-width:8.64"/>
	<path d=" M499.95 2199.72 L719.61 1295.08 L939.39 1295.08 L1159.04 1068.86 L1378.82 842.76 L1598.48 616.54 L1818.26 390.44" stroke-linejoin="round" style="fill:none;stroke:#E37E00;stroke-width:8.64"/>
	<text x="1970.10" y="2001.51" style="font-family:'Helvetica';font-size:79.94px;fill:#000000">2: Riet</text>
	<text x="1970.10" y="1775.29" style="font-family:'Helvetica';font-size:79.94px;fill:#000000">3: Freya Jonathan</text>
	<text x="1970.10" y="1549.19" style="font-family:'Helvetica';font-size:79.94px;fill:#000000">4: Ine Ronald Shana</text>
	<text x="1970.10" y="1322.97" style="font-family:'Helvetica';font-size:79.94px;fill:#000000">5: Els Lieze Lore</text>
	<text x="1970.10" y="1096.87" style="font-family:'Helvetica';font-size:79.94px;fill:#000000">6: Charlotte Sophie</text>
	<text x="1970.10" y="870.65" style="font-family:'Helvetica';font-size:79.94px;fill:#000000">7: Jorien</text>
	<text x="1970.10" y="418.33" style="font-family:'Helvetica';font-size:79.94px;fill:#000000">9: Anne Guido Hanne Kathleen Nele Severien Yinthe</text>
	<line x1="436.59" y1="2489.19" x2="436.59" y2="100.86" style="stroke:#000000;stroke-width:5.76"/>
	<line x1="436.59" y1="2425.82" x2="396.62" y2="2425.82" style="stroke:#000000;stroke-width:5.76"/>
	<text x="376.57" y="2460.85" style="font-family:'Helvetica';font-size:99.99px;fill:#000000" text-anchor="end">0</text>
	<line x1="436.59" y1="1973.50" x2="396.62" y2="1973.50" style="stroke:#000000;stroke-width:5.76"/>
	<text x="376.57" y="2008.53" style="font-family:'Helvetica';font-size:99.99px;fill:#000000" text-anchor="end">2</text>
	<line x1="436.59" y1="1521.18" x2="396.62" y2="1521.18" style="stroke:#000000;stroke-width:5.76"/>
	<text x="376.57" y="1556.21" style="font-family:'Helvetica';font-size:99.99px;fill:#000000" text-anchor="end">4</text>
	<line x1="436.59" y1="1068.86" x2="396.62" y2="1068.86" style="stroke:#000000;stroke-width:5.76"/>
	<text x="376.57" y="1103.89" style="font-family:'Helvetica';font-size:99.99px;fill:#000000" text-anchor="end">6</text>
	<line x1="436.59" y1="616.54" x2="396.62" y2="616.54" style="stroke:#000000;stroke-width:5.76"/>
	<text x="376.57" y="651.57" style="font-family:'Helvetica';font-size:99.99px;fill:#000000" text-anchor="end">8</text>
	<line x1="436.59" y1="164.22" x2="396.62" y2="164.22" style="stroke:#000000;stroke-width:5.76"/>
	<text x="376.57" y="199.25" style="font-family:'Helvetica';font-size:99.99px;fill:#000000" text-anchor="end">10</text>
	<text x="190.71" y="1294.96" style="font-family:'Helvetica';font-size:99.99px;fill:#000000" transform="rotate(-90 190.71,1294.96)" text-anchor="middle">score ...</text>
	<line x1="436.59" y1="2489.19" x2="3859.02" y2="2489.19" style="stroke:#000000;stroke-width:5.76"/>
	<line x1="499.95" y1="2489.19" x2="499.95" y2="2529.16" style="stroke:#000000;stroke-width:5.76"/>
	<text x="499.95" y="2619.14" style="font-family:'Helvetica';font-size:99.99px;fill:#000000" text-anchor="middle">1</text>
	<line x1="719.73" y1="2489.19" x2="719.73" y2="2529.16" style="stroke:#000000;stroke-width:5.76"/>
	<text x="719.73" y="2619.14" style="font-family:'Helvetica';font-size:99.99px;fill:#000000" text-anchor="middle">2</text>
	<line x1="939.39" y1="2489.19" x2="939.39" y2="2529.16" style="stroke:#000000;stroke-width:5.76"/>
	<text x="939.39" y="2619.14" style="font-family:'Helvetica';font-size:99.99px;fill:#000000" text-anchor="middle">3</text>
	<line x1="1159.17" y1="2489.19" x2="1159.17" y2="2529.16" style="stroke:#000000;stroke-width:5.76"/>
	<text x="1159.17" y="2619.14" style="font-family:'Helvetica';font-size:99.99px;fill:#000000" text-anchor="middle">4</text>
	<line x1="1378.82" y1="2489.19" x2="1378.82" y2="2529.16" style="stroke:#000000;stroke-width:5.76"/>
	<text x="1378.82" y="2619.14" style="font-family:'Helvetica';font-size:99.99px;fill:#000000" text-anchor="middle">5</text>
	<line x1="1598.60" y1="2489.19" x2="1598.60" y2="2529.16" style="stroke:#000000;stroke-width:5.76"/>
	<text x="1598.60" y="2619.14" style="font-family:'Helvetica';font-size:99.99px;fill:#000000" text-anchor="middle">6</text>
	<line x1="1818.26" y1="2489.19" x2="1818.26" y2="2529.16" style="stroke:#000000;stroke-width:5.76"/>
	<text x="1818.26" y="2619.14" style="font-family:'Helvetica';font-size:99.99px;fill:#000000" text-anchor="middle">7</text>
	<text x="2147.80" y="2729.16" style="font-family:'Helvetica';font-size:99.99px;fill:#000000" text-anchor="middle">... na wedstrijd</text>
</svg>
